<?xml version="1.0" standalone="no"?>
<!DOCTYPE svg PUBLIC "-//W3C//DTD SVG 20010904//EN"
 "http://www.w3.org/TR/2001/REC-SVG-20010904/DTD/svg10.dtd">
<svg version="1.0" xmlns="http://www.w3.org/2000/svg"
 width="425.000000pt" height="425.000000pt" viewBox="0 0 425.000000 425.000000"
 preserveAspectRatio="xMidYMid meet">
<metadata>
Created by potrace 1.14, written by Peter Selinger 2001-2017
</metadata>
<g transform="translate(0.000000,425.000000) scale(0.100000,-0.100000)"
fill="#000000" stroke="none">
<path d="M2808 2535 c-2 -1 -25 -5 -53 -8 -87 -11 -149 -37 -229 -99 -38 -29
-116 -128 -116 -147 0 -5 -6 -20 -13 -35 -17 -31 -15 -202 2 -219 6 -6 11 -17
11 -24 0 -17 48 -92 76 -118 55 -50 79 -67 131 -91 30 -14 64 -27 75 -29 11
-2 29 -7 40 -10 46 -15 188 -7 253 15 99 33 99 59 1 55 -51 -2 -121 17 -187
50 -84 43 -160 163 -161 257 -1 60 32 141 79 194 30 33 102 84 125 88 7 1 18
5 24 8 17 11 65 18 126 19 94 1 85 44 -15 72 -48 14 -162 29 -169 22z"/>
<path d="M328 2465 c-2 -2 -15 -6 -28 -9 -43 -8 -94 -28 -134 -54 -39 -24
-112 -92 -100 -92 4 0 0 -8 -10 -19 -9 -10 -25 -42 -35 -71 -59 -168 48 -358
238 -421 66 -22 172 -29 240 -17 57 11 155 65 200 110 68 68 96 137 96 233 -1
96 -24 153 -94 225 -51 53 -104 83 -183 104 -48 12 -181 20 -190 11z"/>
<path d="M870 2386 c0 -17 7 -26 24 -30 24 -6 24 -6 28 -165 3 -143 5 -163 24
-188 53 -72 170 -91 256 -41 61 37 71 67 73 238 1 74 3 138 4 142 0 3 14 9 31
13 34 8 43 17 34 39 -5 13 -24 16 -105 16 -98 0 -99 0 -99 -24 0 -18 7 -25 30
-30 17 -3 34 -14 38 -25 4 -11 6 -79 6 -151 -1 -126 -2 -133 -26 -157 -31 -30
-93 -39 -126 -17 -36 24 -44 59 -46 203 l-1 134 32 13 c22 10 31 20 30 34 -1
19 -8 20 -104 20 -102 0 -103 0 -103 -24z"/>
<path d="M1369 2405 c0 -3 0 -35 -1 -72 0 -61 2 -68 20 -71 15 -2 25 6 37 31
21 45 49 70 72 65 17 -3 18 -17 18 -183 l0 -180 -27 -3 c-16 -2 -28 -6 -29
-10 0 -4 -2 -15 -4 -25 -3 -16 6 -17 113 -15 111 3 117 4 120 24 3 18 -4 23
-32 28 -31 6 -36 11 -37 34 -6 269 -4 322 14 328 31 10 54 -6 78 -51 41 -78
71 -55 66 50 l-2 50 -202 3 c-112 1 -203 0 -204 -3z"/>
<path d="M1800 2384 c0 -16 6 -24 18 -24 10 0 26 -6 35 -13 15 -10 17 -32 18
-152 0 -130 -4 -181 -15 -192 -4 -4 -28 -10 -48 -12 -5 -1 -8 -12 -8 -26 l0
-26 103 3 c94 3 102 5 102 23 0 13 -10 22 -32 29 -18 5 -35 16 -38 25 -4 14
-9 184 -5 221 0 8 17 -25 36 -75 19 -49 42 -106 51 -125 8 -19 17 -44 19 -54
6 -30 22 -42 40 -31 9 6 41 74 72 153 30 78 57 141 58 139 7 -7 7 -238 0 -244
-4 -4 -16 -8 -28 -10 -26 -4 -25 -3 -30 -28 -3 -19 3 -20 107 -23 l110 -3 1
26 c2 20 -3 25 -22 25 -13 0 -27 8 -32 18 -6 13 -9 279 -3 340 1 8 10 11 25 8
26 -5 36 8 28 37 -4 14 -16 17 -83 17 -77 0 -79 0 -85 -27 -4 -16 -13 -37 -20
-48 -8 -11 -14 -26 -14 -33 0 -20 -64 -181 -71 -182 -4 0 -12 15 -19 33 -6 17
-18 48 -25 67 -7 19 -23 62 -35 95 -35 96 -27 90 -124 92 -85 2 -86 1 -86 -23z"/>
<path d="M3620 2280 c-15 -4 -24 -13 -24 -23 1 -13 -4 -16 -29 -12 -18 4 -33
1 -38 -6 -4 -7 -14 -9 -25 -4 -34 15 -48 14 -66 -2 -44 -40 -7 -64 91 -60 39
1 71 -1 71 -6 0 -5 6 -5 13 0 6 6 31 9 54 7 23 -2 45 1 48 7 4 6 11 6 18 1 27
-21 67 -20 84 2 11 15 14 16 10 4 -5 -14 -1 -18 18 -18 14 0 25 5 25 10 0 7 6
7 18 1 9 -5 53 -8 97 -7 76 1 80 3 83 25 5 30 -8 42 -52 48 -35 4 -36 4 -37
-29 l-1 -33 -7 30 c-6 28 -9 30 -52 30 -25 0 -53 6 -61 13 -13 10 -18 10 -29
0 -8 -7 -27 -12 -44 -12 -16 1 -38 -5 -47 -14 -16 -13 -18 -13 -24 2 -3 9 -15
16 -25 16 -12 0 -19 7 -19 18 0 20 -10 22 -50 12z"/>
<path d="M2860 2225 c0 -48 2 -55 20 -55 11 0 20 7 20 15 0 9 10 19 22 24 18
6 25 4 33 -13 9 -17 20 -21 63 -22 29 0 55 -4 59 -7 3 -4 17 0 30 8 13 9 23
11 23 5 0 -7 23 -10 63 -8 47 2 62 7 63 18 0 8 5 24 9 34 10 23 -21 52 -40 36
-6 -5 -28 -11 -48 -13 -20 -2 -44 -10 -52 -17 -13 -11 -16 -11 -13 -1 4 17
-32 23 -49 9 -9 -7 -17 -7 -29 3 -13 10 -17 10 -25 -2 -6 -10 -9 -10 -9 -1 0
6 -9 12 -21 12 -11 0 -27 7 -35 15 -9 8 -31 15 -50 15 l-34 0 0 -55z"/>
<path d="M3319 2278 c-1 -2 -3 -25 -4 -51 -3 -52 12 -70 39 -48 10 8 16 9 21
1 7 -12 45 -14 45 -2 0 5 -9 17 -20 27 l-20 18 21 23 c20 21 20 24 5 30 -9 3
-23 1 -32 -6 -11 -10 -18 -10 -26 -2 -11 11 -26 16 -29 10z"/>
<path d="M3081 2111 c-6 -4 -11 -12 -10 -17 1 -5 1 -18 0 -28 -1 -19 -2 -19
-14 -2 -10 14 -23 17 -50 14 -31 -3 -37 -1 -37 14 0 11 -7 18 -20 18 -20 0
-24 -7 -22 -47 1 -14 -5 -23 -13 -23 -14 0 -20 24 -16 58 1 6 -7 12 -19 12
-17 0 -20 -6 -20 -45 0 -34 5 -47 19 -55 28 -14 57 -12 71 5 7 8 16 15 21 15
5 0 9 -7 9 -15 0 -16 20 -16 32 -1 4 6 14 4 24 -5 13 -11 18 -11 21 -2 3 9 10
10 22 3 22 -11 31 -4 31 24 0 19 2 18 23 -8 22 -27 24 -28 40 -11 17 16 19 16
36 1 22 -20 60 -21 67 -1 5 13 8 13 21 0 17 -17 32 -19 34 -5 1 6 2 15 3 20 0
6 5 9 11 8 5 -2 9 -9 7 -15 -3 -14 -1 -15 41 -18 15 -1 27 2 27 7 0 5 8 4 19
-1 10 -6 21 -7 25 -3 4 3 11 1 15 -7 11 -17 42 14 35 34 -4 8 -1 15 6 15 6 0
10 -10 8 -22 -2 -17 2 -23 17 -23 17 0 20 6 18 45 -4 58 -9 71 -27 64 -8 -3
-12 -12 -9 -20 3 -8 1 -14 -5 -14 -6 0 -12 6 -15 13 -3 9 -9 9 -24 0 -17 -10
-20 -9 -19 5 2 24 -28 21 -32 -3 -2 -18 -9 -20 -67 -17 -38 1 -65 -2 -65 -7 0
-6 -11 -6 -30 0 -16 6 -35 9 -42 6 -7 -2 -21 0 -30 4 -12 7 -20 4 -28 -8 -8
-13 -13 -14 -16 -5 -3 6 -14 12 -25 12 -10 0 -19 6 -19 14 0 19 -13 27 -29 17z"/>
<path d="M899 1878 c-2 -31 -2 -31 -6 -5 -6 36 -23 35 -23 -2 0 -34 19 -54 40
-41 8 5 18 6 22 4 4 -3 8 3 8 13 1 15 3 14 13 -5 7 -12 17 -19 21 -15 4 4 13
8 19 8 7 0 13 6 13 13 3 32 7 35 13 13 10 -37 27 -36 36 1 l8 33 5 -30 c4 -33
18 -46 39 -38 19 7 16 23 -4 23 -15 0 -16 2 -3 10 13 9 13 11 0 20 -12 8 -11
10 8 10 13 0 22 -6 21 -12 -1 -7 -1 -24 0 -38 2 -24 2 -24 16 -6 9 12 15 15
15 7 0 -7 6 -11 13 -8 8 3 20 1 28 -3 8 -5 19 -4 26 2 9 7 13 7 13 -1 0 -7 5
-9 10 -6 6 4 10 12 9 18 -1 7 -1 21 1 32 l1 20 8 -20 c5 -11 6 -26 3 -34 -3
-9 0 -12 9 -9 8 3 14 14 14 25 0 12 3 25 8 29 4 4 7 -7 7 -24 0 -34 15 -44 22
-14 10 39 -5 57 -47 58 -22 0 -43 -4 -47 -10 -5 -8 -8 -7 -8 2 0 15 -36 16
-45 2 -4 -7 -11 -7 -18 -2 -21 16 -115 11 -122 -7 -5 -13 -7 -14 -15 -1 -10
17 -61 20 -72 5 -5 -6 -8 -5 -8 3 0 21 -18 13 -23 -10 l-4 -23 -2 23 c-2 34
-21 26 -22 -10z m341 -10 c0 -6 -6 -5 -15 2 -8 7 -15 14 -15 16 0 2 7 1 15 -2
8 -4 15 -11 15 -16z m-50 -4 c0 -8 -5 -12 -10 -9 -6 4 -8 11 -5 16 9 14 15 11
15 -7z"/>
<path d="M1388 1904 c-4 -3 -1 -13 7 -20 8 -8 12 -23 10 -34 -2 -11 0 -20 6
-20 5 0 9 14 9 30 0 17 5 30 10 30 6 0 10 -13 10 -30 0 -21 5 -30 18 -31 9 -1
24 -2 32 -3 8 0 18 3 22 8 4 6 13 4 22 -3 13 -11 16 -11 16 0 0 11 2 11 10 -1
8 -13 10 -12 10 4 0 18 1 18 20 1 19 -18 20 -17 21 6 1 15 3 18 6 8 5 -19 40
-32 48 -18 3 4 16 4 30 -1 16 -6 27 -6 31 1 4 6 11 6 20 -2 11 -9 18 -8 33 5
16 15 20 15 31 1 8 -9 18 -12 29 -6 9 5 22 6 29 4 8 -3 12 7 12 31 0 38 -15
57 -23 27 -4 -18 -47 -37 -47 -20 0 5 9 9 20 9 24 0 27 18 4 27 -11 4 -22 -1
-30 -12 -8 -10 -14 -14 -14 -8 0 6 -8 14 -17 18 -20 7 -57 -30 -47 -47 4 -6 1
-9 -7 -6 -8 2 -15 17 -17 31 -3 26 -22 39 -22 15 0 -9 -3 -9 -12 0 -19 19 -38
14 -48 -10 -9 -23 -9 -23 -10 2 -1 23 -2 24 -14 7 -10 -12 -15 -14 -18 -6 -5
16 -39 21 -55 7 -8 -6 -13 -6 -13 -1 0 11 -112 18 -122 7z m169 -34 c3 -22
-13 -28 -20 -7 -5 15 3 40 11 32 3 -3 7 -14 9 -25z m-67 0 c0 -12 -7 -20 -17
-20 -15 0 -16 2 -3 10 13 9 13 11 0 20 -13 8 -12 10 3 10 10 0 17 -8 17 -20z
m160 -2 c0 -16 -3 -19 -11 -11 -6 6 -8 16 -5 22 11 17 16 13 16 -11z m116 -15
c-11 -11 -19 6 -11 24 8 17 8 17 12 0 3 -10 2 -21 -1 -24z"/>
<path d="M1930 1867 l0 -39 55 4 c30 3 55 2 55 -2 0 -10 75 0 97 13 7 4 13 0
16 -10 4 -17 4 -17 12 0 8 18 -11 77 -25 77 -5 0 -11 -14 -15 -31 -8 -36 -39
-37 -40 -2 0 22 -19 33 -21 13 -4 -30 -7 -33 -13 -11 -9 34 -29 37 -37 7 -3
-14 -10 -26 -15 -26 -5 0 -6 7 -3 15 9 22 -5 38 -22 24 -8 -6 -14 -7 -14 -2 0
5 -7 10 -15 10 -11 0 -15 -11 -15 -40z"/>
<path d="M2176 1901 c-5 -7 -3 -18 3 -24 6 -6 11 -19 11 -29 0 -30 17 -20 24
13 9 46 8 53 -8 40 -11 -9 -15 -9 -18 1 -3 9 -6 9 -12 -1z"/>
<path d="M2243 1903 c-16 -6 -17 -70 -1 -75 6 -2 32 -1 57 3 25 3 51 4 58 2
16 -6 16 2 1 44 -15 41 -24 42 -43 1 l-14 -33 2 29 c2 24 -2 29 -23 31 -14 1
-31 0 -37 -2z"/>
</g>
</svg>
